<?xml version="1.0" standalone="no" ?>
<svg width="706" height="812" version="1.1" xmlns="http://www.w3.org/2000/svg">
    <path d="M 414,504 L 414,474 524,474 524,444" fill="none" stroke="#000000" stroke-dasharray="5, 5" />
    <path d="M 514,464 L 524,444 534,464 Z" fill="#e0e0e0" stroke="#000000" />
    <path d="M 634,504 L 634,474 524,474 524,444" fill="none" stroke="#000000" stroke-dasharray="5, 5" />
    <path d="M 514,464 L 524,444 534,464 Z" fill="#e0e0e0" stroke="#000000" />
    <path d="M 634,616 L 634,754 384,754" fill="none" stroke="#000000" />
    <path d="M 400,762 L 384,754 400,746" fill="none" stroke="#000000" />
    <path d="M 414,576 L 414,754 384,754" fill="none" stroke="#000000" />
    <path d="M 400,762 L 384,754 400,746" fill="none" stroke="#000000" />
    <path d="M 174,684 L 174,624" fill="none" stroke="#000000" stroke-dasharray="5, 5" />
    <path d="M 164,646 L 174,626 184,646 Z" fill="#e0e0e0" stroke="#000000" />
    <path d="M 524,236 L 524,304" fill="none" stroke="#000000" />
    <path d="M 532,288 L 524,304 516,288" fill="none" stroke="#000000" />
    <path d="M 344,124 L 404,124" fill="none" stroke="#000000" />
    <path d="M 388,116 L 404,124 388,132" fill="none" stroke="#000000" />
    <path d="M 334,124 L 374,124 374,374 404,374" fill="none" stroke="#000000" />
    <path d="M 388,366 L 404,374 388,382" fill="none" stroke="#000000" />
    <rect x="404" y="4" width="240" height="232" fill="#c8ffc8" stroke="#000000" />
    <line x1="404" y1="24" x2="644" y2="24" stroke="#000000" />
    <line x1="404" y1="110" x2="644" y2="110" stroke="#000000" />
    <text x="524" y="19" font-size="13" font-weight="700" font-family="Arial" fill="#000000" text-anchor="middle">AffectorCollection&lt;ParticleType&gt;</text>
    <text x="524" y="36" font-size="11" font-weight="700" font-family="Arial" fill="#808080" text-anchor="middle">Attributes</text>
    <text x="524" y="122" font-size="11" font-weight="700" font-family="Arial" fill="#808080" text-anchor="middle">Methods</text>
    <text x="414" y="55" font-size="13" font-weight="400" font-family="Arial" fill="#640000">/ CoalescableAffectors</text>
    <text x="414" y="75" font-size="13" font-weight="400" font-family="Arial" fill="#640000">/ NoncoalescableAffectors</text>
    <text x="414" y="95" font-size="13" font-weight="400" font-family="Arial" fill="#640000">+ Count</text>
    <text x="414" y="141" font-size="13" font-weight="400" font-family="Arial" fill="#000064">+ Add()</text>
    <text x="414" y="161" font-size="13" font-weight="400" font-family="Arial" fill="#000064">+ Remove()</text>
    <text x="414" y="181" font-size="13" font-weight="400" font-family="Arial" fill="#000064">+ Clear()</text>
    <text x="414" y="201" font-size="13" font-weight="400" font-family="Arial" fill="#000064">+ Contains()</text>
    <text x="414" y="221" font-size="13" font-weight="400" font-family="Arial" fill="#000064">+ CopyTo()</text>
    <rect x="14" y="374" width="280" height="252" fill="#c8ffc8" stroke="#000000" />
    <line x1="14" y1="414" x2="294" y2="414" stroke="#000000" />
    <line x1="14" y1="480" x2="294" y2="480" stroke="#000000" />
    <text x="154" y="409" font-size="13" font-weight="700" font-family="Arial" font-style="italic" fill="#000000" text-anchor="middle">IParticleAccessor&lt;ParticleType&gt;</text>
    <text x="154" y="391" font-size="13" font-weight="400" font-family="Arial" fill="#000000" text-anchor="middle">&lt;&lt;interface&gt;&gt;</text>
    <text x="154" y="426" font-size="11" font-weight="700" font-family="Arial" fill="#808080" text-anchor="middle">Attributes</text>
    <text x="154" y="492" font-size="11" font-weight="700" font-family="Arial" fill="#808080" text-anchor="middle">Methods</text>
    <text x="24" y="445" font-size="13" font-weight="400" font-family="Arial" fill="#640000">+ HasVelocity</text>
    <text x="24" y="465" font-size="13" font-weight="400" font-family="Arial" fill="#640000">+ HasWeight</text>
    <text x="24" y="511" font-size="13" font-weight="400" font-family="Arial" fill="#000064">+ GetPosition(ref ParticleType, out Vector3)</text>
    <text x="24" y="531" font-size="13" font-weight="400" font-family="Arial" fill="#000064">+ SetPosition(ref ParticleType, ref Vector3)</text>
    <text x="24" y="551" font-size="13" font-weight="400" font-family="Arial" fill="#000064">+ GetVelocity(ref ParticleType, ref Vector3)</text>
    <text x="24" y="571" font-size="13" font-weight="400" font-family="Arial" fill="#000064">+ SetVelocity(ref ParticleType, ref Vector3)</text>
    <text x="24" y="591" font-size="13" font-weight="400" font-family="Arial" fill="#000064">+ GetWeight(ref ParticleType)</text>
    <text x="24" y="611" font-size="13" font-weight="400" font-family="Arial" fill="#000064">+ SetWeight(ref ParticleType, float)</text>
    <rect x="404" y="304" width="240" height="140" fill="#c8ffc8" stroke="#000000" />
    <line x1="404" y1="344" x2="644" y2="344" stroke="#000000" />
    <line x1="404" y1="390" x2="644" y2="390" stroke="#000000" />
    <text x="524" y="339" font-size="13" font-weight="700" font-family="Arial" font-style="italic" fill="#000000" text-anchor="middle">IParticleAffector&lt;ParticleType&gt;</text>
    <text x="524" y="321" font-size="13" font-weight="400" font-family="Arial" fill="#000000" text-anchor="middle">&lt;&lt;interface&gt;&gt;</text>
    <text x="524" y="356" font-size="11" font-weight="700" font-family="Arial" fill="#808080" text-anchor="middle">Attributes</text>
    <text x="524" y="402" font-size="11" font-weight="700" font-family="Arial" fill="#808080" text-anchor="middle">Methods</text>
    <text x="414" y="375" font-size="13" font-weight="400" font-family="Arial" fill="#640000">+ IsCoalescable</text>
    <text x="414" y="421" font-size="13" font-weight="400" font-family="Arial" fill="#000064">+ Affect(ParticleType[], int, int, int)</text>
    <rect x="14" y="684" width="370" height="126" fill="#c8ffc8" stroke="#000000" />
    <line x1="14" y1="724" x2="384" y2="724" stroke="#000000" />
    <text x="199" y="719" font-size="13" font-weight="700" font-family="Arial" font-style="italic" fill="#000000" text-anchor="middle">IParticleModifier&lt;ParticleType&gt;</text>
    <text x="199" y="701" font-size="13" font-weight="400" font-family="Arial" fill="#000000" text-anchor="middle">&lt;&lt;interface&gt;&gt;</text>
    <text x="199" y="736" font-size="11" font-weight="700" font-family="Arial" fill="#808080" text-anchor="middle">Methods</text>
    <text x="24" y="755" font-size="13" font-weight="400" font-family="Arial" fill="#000064">+ AddVelocityToPosition(ParticleType[], int, int)</text>
    <text x="24" y="775" font-size="13" font-weight="400" font-family="Arial" fill="#000064">+ AddScaledVelocityToPosition(ParticleType[], int, int, float)</text>
    <text x="24" y="795" font-size="13" font-weight="400" font-family="Arial" fill="#000064">+ AddToVelocity(ParticleType[], int, int, ref Vector3)</text>
    <rect x="344" y="504" width="150" height="72" fill="#c8ffc8" stroke="#000000" />
    <line x1="344" y1="524" x2="494" y2="524" stroke="#000000" />
    <line x1="344" y1="550" x2="494" y2="550" stroke="#000000" />
    <text x="419" y="519" font-size="13" font-weight="700" font-family="Arial" fill="#000000" text-anchor="middle">MovementAffector</text>
    <text x="419" y="536" font-size="11" font-weight="700" font-family="Arial" fill="#808080" text-anchor="middle">Attributes</text>
    <text x="419" y="562" font-size="11" font-weight="700" font-family="Arial" fill="#808080" text-anchor="middle">Methods</text>
    <rect x="554" y="504" width="150" height="112" fill="#c8ffc8" stroke="#000000" />
    <line x1="554" y1="524" x2="704" y2="524" stroke="#000000" />
    <line x1="554" y1="590" x2="704" y2="590" stroke="#000000" />
    <text x="629" y="519" font-size="13" font-weight="700" font-family="Arial" fill="#000000" text-anchor="middle">MovementAffector</text>
    <text x="629" y="536" font-size="11" font-weight="700" font-family="Arial" fill="#808080" text-anchor="middle">Attributes</text>
    <text x="629" y="602" font-size="11" font-weight="700" font-family="Arial" fill="#808080" text-anchor="middle">Methods</text>
    <text x="564" y="555" font-size="13" font-weight="400" font-family="Arial" fill="#640000">+ UpdatesPerSecond</text>
    <text x="564" y="575" font-size="13" font-weight="400" font-family="Arial" fill="#640000">+ Gravity</text>
    <rect x="4" y="4" width="340" height="252" fill="#c8ffc8" stroke="#000000" />
    <line x1="4" y1="24" x2="344" y2="24" stroke="#000000" />
    <line x1="4" y1="90" x2="344" y2="90" stroke="#000000" />
    <text x="174" y="19" font-size="13" font-weight="700" font-family="Arial" fill="#000000" text-anchor="middle">ParticleSystem&lt;ParticleType&gt;</text>
    <text x="174" y="36" font-size="11" font-weight="700" font-family="Arial" fill="#808080" text-anchor="middle">Attributes</text>
    <text x="174" y="102" font-size="11" font-weight="700" font-family="Arial" fill="#808080" text-anchor="middle">Methods</text>
    <text x="14" y="55" font-size="13" font-weight="400" font-family="Arial" fill="#640000">+ Particles : ArraySegment&lt;ParticleType&gt;</text>
    <text x="14" y="75" font-size="13" font-weight="400" font-family="Arial" fill="#640000">+ Affectors : AffectorCollection&lt;ParticleType&gt;</text>
    <text x="14" y="121" font-size="13" font-weight="400" font-family="Arial" fill="#000064">+ AddParticle()</text>
    <text x="14" y="141" font-size="13" font-weight="400" font-family="Arial" fill="#000064">+ RemoveParticle()</text>
    <text x="14" y="161" font-size="13" font-weight="400" font-family="Arial" fill="#000064">+ Update(int)</text>
    <text x="14" y="181" font-size="13" font-weight="400" font-family="Arial" fill="#000064">+ BeginUpdate(int, int, AsyncCallback, object)</text>
    <text x="14" y="201" font-size="13" font-weight="400" font-family="Arial" fill="#000064">+ EndUpdate(IAsyncResult)</text>
    <text x="14" y="221" font-size="13" font-weight="400" font-family="Arial" fill="#000064">+ BeginPrune(PrunePredicate, AsyncCallback, object)</text>
    <text x="14" y="241" font-size="13" font-weight="400" font-family="Arial" fill="#000064">+ EndPrune(IAsyncResult)</text>
</svg>
